<svg width="180" height="48" viewBox="0 0 180 48" fill="none" xmlns="http://www.w3.org/2000/svg">
  <rect x="1" y="1" width="178" height="46" rx="12" fill="url(#paint0_linear)" stroke="#E87428" stroke-width="2" />
  <path d="M36 24c0 6.627-5.373 12-12 12S12 30.627 12 24s5.373-12 12-12 12 5.373 12 12z" fill="white" opacity="0.9" />
  <path d="M18.8 16.5l6.9 10.2c.5.7 1.4.9 2.1.5l3.2-1.8c.8-.4 1-.7.4-1.5l-6.9-10.2c-.5-.7-1.4-.9-2.1-.5l-3.2 1.8c-.7.4-1 .8-.4 1.5z" fill="#FE8B3B" />
  <path d="M22 28.8l-2.6 4.4c-.3.6.4 1.3 1 .9l4.3-2.5" stroke="#00AEEF" stroke-width="1.8" stroke-linecap="round" />
  <text x="58" y="30" font-family="'Inter', 'Arial', sans-serif" font-size="18" font-weight="700" fill="white" letter-spacing="0.5">
    BadmintonBooking
  </text>
  <defs>
    <linearGradient id="paint0_linear" x1="0" y1="0" x2="180" y2="48" gradientUnits="userSpaceOnUse">
      <stop offset="0%" stop-color="#FE8B3B" />
      <stop offset="50%" stop-color="#FFB97A" />
      <stop offset="100%" stop-color="#00AEEF" />
    </linearGradient>
  </defs>
</svg>
